<svg xmlns="http://www.w3.org/2000/svg" xmlns:xlink="http://www.w3.org/1999/xlink" style="enable-background:new 0 0 173.347 237.423;" version="1.1" xml:space="preserve" width="240.36841767118267" height="239.10526305222447"><rect id="backgroundrect" width="100%" height="100%" x="0" y="0" fill="none" stroke="none" class=""/><g class="currentLayer"><title>Layer 1</title><g id="svg_1" class="selected" fill="#ffffff" fill-opacity="1"><path d="M141.71671010971068,102.3586316165924 c-4.703,0.11800000000000019 -8.221,1.443 -10.896,3.672 c-4.795,3.996 -6.848,10.933 -7.918,19.278 c-4.158,32.447 18.254,57.61 19.334,73.668 c0.455,6.788 -2.416,28.999 7.582,35.511 c4.41,2.872 1.084,-45.845 16.418,-45.845 c15.332,0 13.199,46.938 19.707,46.501 c6.506,-0.43700000000000055 8.392,-31.307 7.482,-42.802 c-1.219,-15.436 13.754,-45.648 13.098,-62.397 c-0.6580000000000015,-16.748 -11.436,-33.057 -24.631,-28.571 c-15.037,5.113 -12.871,9.192 -18.289,9.843 c-0.49800000000000055,0.06000000000000011 -1.055,0.09300000000000026 -1.701,0.09300000000000026 C154.2337101097107,111.30963161659241 154.8527101097107,102.02963161659241 141.71671010971068,102.3586316165924 zM187.7627101097107,174.4766316165924 c8.314,-19.955 10.811,-37.001 10.811,-37.001 S202.72971010971068,155.76863161659242 187.7627101097107,174.4766316165924 zM197.7607101097107,118.47563161659241 c-2,-8 -10.75,-13.5 -10.75,-13.5 S198.7607101097107,106.72563161659241 197.7607101097107,118.47563161659241 zM181.8037101097107,113.22563161659241 c-15.334,19.25 -32.459,11.875 -36,3.6670000000000007 C163.8447101097107,129.2256316165924 181.8037101097107,113.22563161659241 181.8037101097107,113.22563161659241 z" id="svg_2" fill="#ffffff" fill-opacity="1"/><path d="M76.46271010971068,51.62563161659241 c12.1,2.817 24.193,-4.708 27.01,-16.808 c1.154,-4.958 0.5700000000000006,-9.914 -1.352,-14.232 c2.857,-1.9140000000000001 4.74,-5.17 4.74,-8.867 C106.8607101097107,5.8276316165924085 102.0837101097107,1.0526316165924072 96.1927101097107,1.0526316165924072 c-4.481,0 -8.311,2.766 -9.889,6.681 c-6.313,-1.363 -12.598,0.06700000000000016 -17.541,3.485 h16.789 c-0.008000000000000018,0.16700000000000043 -0.025000000000000057,0.3310000000000006 -0.025000000000000057,0.5 c0,1.227 0.21700000000000028,2.402 0.6000000000000006,3.5 H64.3647101097107 c-2.223,2.632 -3.8770000000000002,5.811 -4.711,9.397 C56.8377101097107,36.714631616592406 64.36271010971069,48.80863161659241 76.46271010971068,51.62563161659241 zM87.90171010971069,11.843631616592408 c0,-0.21100000000000024 0.016000000000000035,-0.4180000000000003 0.031000000000000066,-0.6250000000000011 c0.07600000000000012,-1.009 0.3300000000000006,-1.9660000000000002 0.7340000000000011,-2.842 C89.98171010971069,5.530631616592407 92.8527101097107,3.5526316165924072 96.1927101097107,3.5526316165924072 c4.58,0 8.293,3.7110000000000003 8.293,8.291 c0,2.7520000000000002 -1.346,5.183 -3.408,6.691 c-1.371,1.003 -3.057,1.601 -4.885,1.601 c-3.375,0 -6.275,-2.021 -7.568,-4.917 C88.16371010971069,14.186631616592408 87.90171010971069,13.046631616592407 87.90171010971069,11.843631616592408 z" id="svg_3" fill="#ffffff" fill-opacity="1"/><path d="M50.28271010971069,118.36563161659241 c0.791,0.37000000000000055 1.6110000000000002,0.7220000000000006 2.453,1.063 c0.5760000000000006,0.233 1.182,0.45 1.783,0.6690000000000015 c0.018000000000000033,0.007000000000000021 0.035,0.014000000000000018 0.053000000000000116,0.020000000000000035 c4.6850000000000005,1.7040000000000002 10.133,2.996 16.504,3.879 c0.973,0.135 1.975,0.259 2.992,0.37500000000000056 c0.6840000000000016,0.07800000000000012 1.35,0.16400000000000034 2.055,0.233 c0.266,0.025000000000000057 0.529,0.03800000000000001 0.789,0.03800000000000001 c0.809,0 1.592,-0.127 2.334,-0.3540000000000003 c1.992,-0.6110000000000011 3.672,-1.9849999999999999 4.6720000000000015,-3.8120000000000003 c0.502,-0.918 0.8380000000000006,-1.947 0.9450000000000006,-3.055 c0.03700000000000001,-0.38100000000000056 0.03900000000000007,-0.7560000000000011 0.023000000000000066,-1.127 c-0.16800000000000043,-3.9130000000000003 -3.178,-7.208 -7.184,-7.611 c-0.008000000000000018,-0.0010000000000000024 -0.016000000000000035,-0.0020000000000000044 -0.021000000000000053,-0.0030000000000000096 c-1.031,-0.09900000000000028 -2.018,-0.21200000000000024 -2.983,-0.3310000000000006 c-9.998,-1.238 -16.494,-3.547 -20.18,-5.843 c-0.3590000000000003,-0.22400000000000034 -0.7010000000000006,-0.4470000000000006 -1.008,-0.6690000000000015 c-0.279,-0.2 -0.535,-0.3970000000000008 -0.775,-0.5920000000000006 c-1.4020000000000001,-1.13 -2.195,-2.167 -2.6990000000000007,-3.111 c-0.5800000000000006,-1.116 -0.8300000000000006,-2.188 -0.8380000000000006,-3.535 c-0.10500000000000002,-3.165 2.021,-8.046 5.32,-12.09 V100.09263161659241 c0.05500000000000007,0.04100000000000008 0.10200000000000002,0.07900000000000014 0.1580000000000003,0.12000000000000002 c1.9100000000000001,1.3840000000000001 7.582,4.612 20.475,6.183 l5.336,-23.038 l0.012000000000000018,0.0030000000000000096 c0.555,-2.201 5.539,-3.925 11.611,-3.925 c3.359,0 6.3790000000000004,0.531 8.508,1.375 c1.953,0.775 3.158,1.8130000000000002 3.158,2.958 c0,0.24200000000000021 -0.06700000000000016,0.4780000000000003 -0.17,0.7090000000000006 c-0.914,2.054 -5.705,3.624 -11.496,3.624 c-3.771,0 -7.115,-0.6680000000000015 -9.248,-1.6990000000000007 l-4.709,20.331 c2.547,0.3200000000000006 4.84,1.57 6.475,3.56 c0.8300000000000006,1.01 1.44,2.149 1.818,3.36 c0.3960000000000008,1.263 0.539,2.605 0.406,3.963 c-0.2400000000000002,2.4450000000000003 -1.338,4.597 -2.971,6.19 c-1.268,1.237 -2.859,2.129 -4.6370000000000005,2.552 c-0.7500000000000011,0.1780000000000002 -1.529,0.2830000000000003 -2.334,0.2830000000000003 c-0.3260000000000006,0 -0.6500000000000012,-0.015000000000000032 -0.982,-0.04800000000000007 c-0.789,-0.07800000000000012 -1.5510000000000002,-0.16900000000000043 -2.316,-0.257 l-3.805,16.429 l-4.824,20.83 l-2.924,-0.6770000000000016 l4.668,-20.153 l3.895,-16.813 c-6.105,-0.8580000000000011 -11.438,-2.097 -16.104,-3.736 v12.822 v91.075 c0,6.829 5.535,12.363 12.363,12.363 s12.363,-5.534 12.363,-12.363 v-83.348 h4.6370000000000005 v83.348 c0,6.829 5.535,12.363 12.363,12.363 s12.363,-5.534 12.363,-12.363 v-91.075 V121.17263161659241 V89.87163161659241 c0.15400000000000028,0.15400000000000028 0.2970000000000003,0.3060000000000003 0.455,0.461 c5.125,5.053 11.715,10.338000000000001 19.797,14.683 c2.988,-2.757 7.092,-4.514 12.807,-4.6560000000000015 c0.24600000000000027,-0.007000000000000021 0.4860000000000003,-0.010000000000000018 0.7270000000000006,-0.010000000000000018 c7.809,0 11.162,3.262 13.855,5.881 c1.9060000000000001,1.854 3.166,3.081 5.652,3.081 c1.562,0 2.428,-0.17900000000000021 3.172,-0.5830000000000006 c0.201,-0.551 0.3520000000000003,-1.1280000000000001 0.4300000000000003,-1.735 c0.561,-4.383 -2.535,-8.393 -6.918,-8.953 c-17.322,-2.225 -29.865,-10.836 -38.301,-19.113 c-4.195,-4.127 -7.305,-8.136 -9.326,-11.06 c-1.008,-1.462 -1.7480000000000002,-2.6510000000000002 -2.215,-3.443 c-0.23800000000000004,-0.3960000000000008 -0.404,-0.6920000000000017 -0.504,-0.8750000000000011 c-0.053000000000000116,-0.09200000000000023 -0.08400000000000016,-0.15300000000000027 -0.10400000000000002,-0.1870000000000003 c-0.783,-1.517 -1.988,-2.672 -3.3930000000000002,-3.407 c-1.137,-0.6580000000000015 -2.453,-1.041 -3.861,-1.041 H62.24571010971069 c-1.084,0 -2.115,0.22600000000000034 -3.053,0.6280000000000011 c-3.012,0.901 -5.557,2.409 -8.147,4.265 c-4.299,3.159 -8.482,7.458 -11.859,12.624 C35.860710109710695,81.59263161659241 33.235710109710695,87.68663161659241 33.19671010971069,94.59763161659241 c-0.008000000000000018,3.628 0.8140000000000006,7.467 2.689,11.003 C38.69871010971069,110.9476316165924 43.67571010971069,115.2836316165924 50.28271010971069,118.36563161659241 z" id="svg_4" fill="#ffffff" fill-opacity="1"/></g></g></svg>