<svg xmlns="http://www.w3.org/2000/svg" xmlns:xlink="http://www.w3.org/1999/xlink" style="enable-background:new 0 0 512 512;" version="1.1" xml:space="preserve" width="512" height="512"><rect id="backgroundrect" width="100%" height="100%" x="0" y="0" fill="none" stroke="none" class=""/><g class="currentLayer"><title>Layer 1</title><g id="XMLID_7_" class="selected" fill="#ffffff" fill-opacity="1"><path d="M88.7,394.5H29.4c-6.9,0-12.6,5.6-12.6,12.6v86.4c0,6.9,5.6,12.6,12.6,12.6h59.3c6.9,0,12.6-5.6,12.6-12.6   v-86.4C101.2,400.1,95.6,394.5,88.7,394.5z" id="XMLID_8_" fill="#ffffff" fill-opacity="1"/><path d="M212.8,315.7h-59.3c-6.9,0-12.6,5.6-12.6,12.6v165.2c0,6.9,5.6,12.6,12.6,12.6h59.3   c6.9,0,12.6-5.6,12.6-12.6V328.2C225.3,321.3,219.7,315.7,212.8,315.7z" id="XMLID_25_" fill="#ffffff" fill-opacity="1"/><path d="M336.8,236.8h-59.3c-6.9,0-12.6,5.6-12.6,12.6v244c0,6.9,5.6,12.6,12.6,12.6h59.3c6.9,0,12.6-5.6,12.6-12.6   v-244C349.4,242.5,343.8,236.8,336.8,236.8z" id="XMLID_26_" fill="#ffffff" fill-opacity="1"/><path d="M460.9,158h-59.3c-6.9,0-12.6,5.6-12.6,12.6v322.9c0,6.9,5.6,12.6,12.6,12.6h59.3c6.9,0,12.6-5.6,12.6-12.6   V170.6C473.5,163.6,467.9,158,460.9,158z" id="XMLID_27_" fill="#ffffff" fill-opacity="1"/><path d="M434.5,73.9v29.4c8.4-1.1,12.7-6.2,12.7-15.5c0-3.8-0.9-6.7-2.6-8.8C442.9,76.9,439.5,75.2,434.5,73.9z" id="XMLID_28_" fill="#ffffff" fill-opacity="1"/><path d="M431.3,6c-35.3,0-63.9,28.6-63.9,63.9s28.6,63.9,63.9,63.9s63.9-28.6,63.9-63.9S466.6,6,431.3,6z    M451.7,103.7c-4.1,4.7-9.9,7.3-17.2,7.7v8.5h-5.9v-8.4c-14.9-1.6-22.9-9.7-23.9-24.1h10.6c0.8,9.1,5.2,14.4,13.3,15.7V72.5   c-14.8-3-22.2-10.2-22.2-21.7c0-6.5,2-11.7,6-15.6c4-4,9.4-6.2,16.2-6.9v-8.4h5.9v8.4c13,1,20.2,7.6,21.5,19.9h-10.7   c-0.6-6.8-4.2-10.7-10.8-11.6v27.6c9.1,1.9,15.2,4.6,18.5,8.1c3.3,3.6,4.9,8.4,4.9,14.6C457.9,93.4,455.8,99,451.7,103.7z" id="XMLID_31_" fill="#ffffff" fill-opacity="1"/><path d="M417,50c0,4.1,1.1,7.1,3.2,8.9c2.1,1.9,4.9,3.2,8.4,4.1V36.6C420.9,38,417,42.4,417,50z" id="XMLID_32_" fill="#ffffff" fill-opacity="1"/><path d="M345.6,109.3l-78.9,7.3c-2.9,0.3-4.5,3.6-2.8,6l14.6,20.6c1.2,1.7,0.8,4.1-0.9,5.3L18.4,330.7   c-1.7,1.2-2.1,3.6-0.9,5.3l7.8,11c1.2,1.7,3.6,2.1,5.3,0.9l259.2-182.2c1.7-1.2,4.1-0.8,5.3,0.9l14.6,20.6c1.7,2.4,5.4,2.1,6.6-0.6   l33.2-72C350.7,112,348.6,109,345.6,109.3z" id="XMLID_33_" fill="#ffffff" fill-opacity="1"/></g><g id="XMLID_1_"><path d="M-665.4,134.3c4.8-7.5,3.8-17.8-3.3-24.2c-6.9-6.3-17.6-6.5-24.8-0.5c-8.4,7-9.1,19.5-1.8,27.4   c5.9,6.4,15.1,7.8,22.5,4c0.7-0.4,0.9-1.3,0.3-1.9l-0.6-0.6c-0.5-0.5-1.2-0.7-1.8-0.4c-6.4,3-14.4,1.3-19-4.8   c-4.3-5.7-4-13.9,0.7-19.3c6.1-7.1,16.9-7.1,23.1-0.4c4.6,5,5.3,12.3,2.2,18l-0.7-0.7c-0.3-0.3-0.8-0.2-0.9,0.2l-1.7,5.3   c-0.1,0.4,0.2,0.8,0.6,0.7l5.4-1.2c0.4-0.1,0.6-0.6,0.3-0.9L-665.4,134.3z" id="XMLID_6_"/><path d="M-681.3,112c-0.9,0-1.6,0.7-1.6,1.6v7.8c-1,0.5-1.6,1.6-1.6,2.7c0,1.7,1.4,3.1,3.1,3.1l4.2,6   c0.5,0.7,1.5,0.9,2.2,0.4c0.7-0.5,0.9-1.5,0.4-2.2l-4-5.8c0.3-0.5,0.5-1,0.5-1.6c0-1.2-0.6-2.2-1.6-2.7v-7.9   C-679.8,112.7-680.5,112-681.3,112z" id="XMLID_19_"/></g><g id="XMLID_2_"><path d="M-734.4,116.9c-0.3-0.4-0.8-0.4-1.2-0.2l-16.1,11.6c-0.8,0.6-1,1.7-0.4,2.5s1.8,0.9,2.5,0.2l15-13   C-734.2,117.8-734.1,117.3-734.4,116.9z" id="XMLID_3_"/><path d="M-727.5,122.8c0.3,0,0.6-0.3,0.6-0.6v-6c0-0.3-0.3-0.6-0.6-0.6h-0.7c-0.3,0-0.6,0.3-0.6,0.6v6   c0,0.3,0.3,0.6,0.6,0.6H-727.5z" id="XMLID_24_"/><path d="M-731.4,122.8c0.3,0,0.6-0.3,0.6-0.6v-8c0-0.3-0.3-0.6-0.6-0.6h-0.7c-0.3,0-0.6,0.3-0.6,0.6v8   c0,0.3,0.3,0.6,0.6,0.6H-731.4z" id="XMLID_34_"/><path d="M-723.7,122.8c0.3,0,0.6-0.3,0.6-0.6v-10c0-0.3-0.3-0.6-0.6-0.6h-0.7c-0.3,0-0.6,0.3-0.6,0.6v10   c0,0.3,0.3,0.6,0.6,0.6H-723.7z" id="XMLID_35_"/><path d="M-719.8,122.8c0.3,0,0.6-0.3,0.6-0.6v-8c0-0.3-0.3-0.6-0.6-0.6h-0.7c-0.3,0-0.6,0.3-0.6,0.6v8   c0,0.3,0.3,0.6,0.6,0.6H-719.8z" id="XMLID_36_"/><path d="M-715.9,122.8c0.3,0,0.6-0.3,0.6-0.6v-13c0-0.3-0.3-0.6-0.6-0.6h-0.7c-0.3,0-0.6,0.3-0.6,0.6v13   c0,0.3,0.3,0.6,0.6,0.6H-715.9z" id="XMLID_37_"/><path d="M-710,104c0-0.8-0.7-1.5-1.5-1.5h-33.3c-0.8,0-1.5,0.7-1.5,1.5c0,0.6,0.3,1,0.8,1.3c0,0.1,0,0.2,0,0.3v16.3   l2-1.4v-14.9c0,0,0-0.1,0-0.1h30.6c0,0,0,0.1,0,0.1v17.7c0,0.4-0.4,0.8-0.8,0.8h-25.6l-2.3,2h6l-6.7,14.5c-0.4,0.8,0,1.7,0.7,2   l0.8,0.4c0.8,0.4,1.7,0,2-0.7l6.9-14.9h7l6.9,14.9c0.4,0.8,1.3,1.1,2,0.7l0.8-0.4c0.8-0.4,1.1-1.3,0.7-2l-6.7-14.5h7.2   c1.5,0,2.8-1.3,2.8-2.8v-17.7c0-0.1,0-0.2,0-0.3C-710.3,105.1-710,104.6-710,104z" id="XMLID_38_"/></g><g id="XMLID_11_"><path d="M-780.3,124.8v4.5c1.3-0.2,2-1,2-2.4c0-0.6-0.1-1-0.4-1.4C-779,125.3-779.5,125-780.3,124.8z" id="XMLID_16_"/><path d="M-780.8,114.4c-5.4,0-9.8,4.4-9.8,9.8c0,5.4,4.4,9.8,9.8,9.8c5.4,0,9.8-4.4,9.8-9.8   C-771,118.8-775.4,114.4-780.8,114.4z M-777.7,129.4c-0.6,0.7-1.5,1.1-2.6,1.2v1.3h-0.9v-1.3c-2.3-0.3-3.5-1.5-3.7-3.7h1.6   c0.1,1.4,0.8,2.2,2,2.4v-4.7c-2.3-0.5-3.4-1.6-3.4-3.3c0-1,0.3-1.8,0.9-2.4c0.6-0.6,1.4-1,2.5-1.1v-1.3h0.9v1.3   c2,0.2,3.1,1.2,3.3,3.1h-1.6c-0.1-1-0.6-1.6-1.7-1.8v4.3c1.4,0.3,2.3,0.7,2.8,1.3c0.5,0.5,0.8,1.3,0.8,2.2   C-776.7,127.8-777,128.7-777.7,129.4z" id="XMLID_79_"/><path d="M-783,121.2c0,0.6,0.2,1.1,0.5,1.4c0.3,0.3,0.8,0.5,1.3,0.6v-4.1C-782.4,119.3-783,120-783,121.2z" id="XMLID_80_"/><path d="M-760.5,139.1h-14.3c-1.1,0-2,0.9-2,2s0.9,2,2,2h14.3c1.1,0,2-0.9,2-2S-759.4,139.1-760.5,139.1z" id="XMLID_81_"/><path d="M-760.5,133.7h-8c-1.2,1.6-2.7,2.9-4.5,3.9h12.5c1.1,0,2-0.9,2-2S-759.4,133.7-760.5,133.7z" id="XMLID_82_"/><path d="M-760.5,128.3h-5.3c-0.4,1.4-1,2.7-1.7,3.9h7c1.1,0,2-0.9,2-2S-759.4,128.3-760.5,128.3z" id="XMLID_83_"/><path d="M-760.5,122.9h-4.8c0,0.4,0.1,0.9,0.1,1.3c0,0.9-0.1,1.8-0.2,2.6h4.9c1.1,0,2-0.9,2-2   S-759.4,122.9-760.5,122.9z" id="XMLID_84_"/><path d="M-760.5,117.5h-6.3c0.6,1.2,1,2.5,1.3,3.9h5c1.1,0,2-0.9,2-2C-758.6,118.4-759.4,117.5-760.5,117.5z" id="XMLID_85_"/><path d="M-767.6,116h7.1c1.1,0,2-0.9,2-2c0-1.1-0.9-2-2-2h-10.5C-769.7,113.2-768.5,114.5-767.6,116z" id="XMLID_86_"/><path d="M-801.6,128.5c-1.1,0-2,0.9-2,2c0,1.1,0.9,2,2,2h7.5c-0.8-1.2-1.3-2.5-1.7-3.9H-801.6z" id="XMLID_87_"/><path d="M-801.6,127h5.4c-0.2-0.9-0.3-1.8-0.3-2.8c0-0.4,0-0.8,0.1-1.1h-5.2c-1.1,0-2,0.9-2,2   C-803.5,126.1-802.6,127-801.6,127z" id="XMLID_88_"/><path d="M-801.6,121.6h5.4c0.2-1.4,0.7-2.7,1.2-3.9h-6.6c-1.1,0-2,0.9-2,2C-803.5,120.7-802.6,121.6-801.6,121.6z" id="XMLID_89_"/><path d="M-801.6,116.2h7.4c0.9-1.5,2-2.8,3.4-3.9h-10.8c-1.1,0-2,0.9-2,2C-803.5,115.3-802.6,116.2-801.6,116.2z" id="XMLID_90_"/><path d="M-801.6,110.8h12.9c1-0.6,2.1-1.1,3.2-1.4c0-0.2,0.1-0.3,0.1-0.5c0-1.1-0.9-2-2-2h-14.3c-1.1,0-2,0.9-2,2   C-803.5,109.9-802.6,110.8-801.6,110.8z" id="XMLID_91_"/><path d="M-801.6,105.4h14.3c1.1,0,2-0.9,2-2s-0.9-2-2-2h-14.3c-1.1,0-2,0.9-2,2S-802.6,105.4-801.6,105.4z" id="XMLID_92_"/><path d="M-766.5,124.2c0-7.9-6.4-14.3-14.3-14.3c-7.9,0-14.3,6.4-14.3,14.3c0,7.9,6.4,14.3,14.3,14.3   C-772.9,138.5-766.5,132.1-766.5,124.2z M-780.8,135.4c-6.2,0-11.2-5-11.2-11.2s5-11.2,11.2-11.2s11.2,5,11.2,11.2   S-774.6,135.4-780.8,135.4z" id="XMLID_95_"/></g><g id="XMLID_4_"><path d="M-807.4,138.5l-6.5-3.8c-0.3-0.2-0.7,0-0.7,0.4v1.5h-33.6v-36.2h1.6c0.3,0,0.5-0.4,0.4-0.7l-3.8-6.5   c-0.2-0.3-0.6-0.3-0.8,0l-3.8,6.5c-0.2,0.3,0,0.7,0.4,0.7h1.6v38.5c0,1.1,0.9,2.1,2.1,2.1h36v1.6c0,0.3,0.4,0.5,0.7,0.4l6.5-3.8   C-807.1,139.1-807.1,138.7-807.4,138.5z" id="XMLID_22_"/><path d="M-842.9,133.2h21.2c0.9,0,1.6-0.7,1.6-1.6v-1.3c0-0.9-0.7-1.6-1.6-1.6h-21.2c-0.9,0-1.6,0.7-1.6,1.6v1.3   C-844.4,132.5-843.7,133.2-842.9,133.2z" id="XMLID_44_"/><path d="M-842.9,126.1h9.8c0.9,0,1.6-0.7,1.6-1.6v-1.3c0-0.9-0.7-1.6-1.6-1.6h-9.8c-0.9,0-1.6,0.7-1.6,1.6v1.3   C-844.4,125.4-843.7,126.1-842.9,126.1z" id="XMLID_45_"/><path d="M-842.9,119h17.7c0.9,0,1.6-0.7,1.6-1.6v-1.3c0-0.9-0.7-1.6-1.6-1.6h-17.7c-0.9,0-1.6,0.7-1.6,1.6v1.3   C-844.4,118.3-843.7,119-842.9,119z" id="XMLID_46_"/><path d="M-842.9,111.9h14.5c0.9,0,1.6-0.7,1.6-1.6V109c0-0.9-0.7-1.6-1.6-1.6h-14.5c-0.9,0-1.6,0.7-1.6,1.6v1.3   C-844.4,111.2-843.7,111.9-842.9,111.9z" id="XMLID_47_"/></g><g id="XMLID_10_"><path d="M-869.9,106.7h-14.8l-1.1-5.4c0-0.8-0.7-1.5-1.6-1.5h-14.7c-0.8,0-1.5,0.7-1.6,1.5l-1.1,5.4h-14.8   c-1.7,0-3.1,1.4-3.1,3.1V140c0,1.7,1.4,3.1,3.1,3.1h49.7c1.7,0,3.1-1.4,3.1-3.1v-30.1C-866.7,108.1-868.1,106.7-869.9,106.7z    M-901.3,102.3h13.2l0.9,4.4h-15L-901.3,102.3z M-892.5,120.8c0,1.2-1,2.2-2.2,2.2c-1.2,0-2.2-1-2.2-2.2c0-1.2,1-2.2,2.2-2.2   C-893.5,118.6-892.5,119.6-892.5,120.8z M-870.7,139.1h-48.1v-25.5c4.7,6,18.3,11,24,11c7.4,0,19.6-5,24-10.8V139.1z" id="XMLID_53_"/><circle cx="-894.7000122070312" cy="120.80000305175781" id="XMLID_57_" r="1.5"/></g></g></svg>