<svg xmlns="http://www.w3.org/2000/svg" xmlns:xlink="http://www.w3.org/1999/xlink" version="1.1" xml:space="preserve" width="229.74999994412065" height="229.74999994412065"><rect id="backgroundrect" width="100%" height="100%" x="0" y="0" fill="none" stroke="none" class=""/><g class="currentLayer"><title>Layer 1</title><g class=""><ellipse cx="63.877865316992526" cy="84.48884506962298" rx="22.4950008392334" ry="22.4950008392334" transform="matrix(0.2268,-0.9739,0.9739,0.2268,18.0322,67.7133) " id="svg_2" fill="#ffffff" fill-opacity="1" class=""/><path d="M76.47849475097657,153.2340376110077 c0.555,0 1.119,-0.05800000000000026 1.6840000000000006,-0.17900000000000021 c4.32,-0.927 7.07,-5.181 6.143,-9.501 c-3.73,-17.381 -5.166,-30.861 -5.164,-41.143 c-0.002000000000000014,-8.854 1.064,-15.319 2.526,-19.911 c1.858,-5.716 4.116,-8.516 6.091,-10.13 v38.673 v18.939 v86 c0,6.829 5.536,12.363 12.363,12.363 c6.828,0 12.364,-5.534 12.364,-12.363 v-78.272 h4.636 v78.272 c0,6.829 5.536,12.363 12.363,12.363 c6.828,0 12.364,-5.534 12.364,-12.363 v-86 v-18.939 V72.2370376110077 c1.221,0.97 2.518,2.407 3.838,4.659 c2.52,4.377 4.928,12.215 4.922,25.515 c0.004000000000000029,10.282 -1.4340000000000002,23.762 -5.163,41.143 c-0.927,4.32 1.826,8.574 6.145,9.501 c0.5640000000000006,0.12100000000000002 1.1280000000000001,0.17900000000000021 1.6830000000000007,0.17900000000000021 c3.692,0.0010000000000000041 7.012,-2.569 7.817,-6.324 c3.902,-18.211 5.515,-32.74 5.518,-44.498 c-0.004000000000000029,-10.117 -1.197,-18.199 -3.277,-24.755 c-3.069,-9.818 -8.435,-16.242 -14.007,-19.699 c-5.559,-3.488 -10.819,-4.037 -13.659,-4.037 c-0.20400000000000001,0 -0.37900000000000167,0.006000000000000059 -0.56,0.011000000000000086 c-0.3230000000000019,-0.04200000000000025 -0.6510000000000038,-0.07 -0.986,-0.07 H95.48549475097656 c-0.3290000000000019,0 -0.6510000000000038,0.027000000000000208 -0.97,0.0670000000000005 c-0.14300000000000004,-0.0030000000000000274 -0.274,-0.008000000000000057 -0.4310000000000003,-0.008000000000000057 c-1.911,0 -4.847,0.24300000000000024 -8.277,1.4380000000000002 c-5.145,1.742 -11.322,5.95 -15.634,13.597 C65.82249475097656,76.5920376110077 63.14749475097656,87.25603761100768 63.14149475097656,102.41103761100769 c0.002000000000000014,11.758000000000001 1.6150000000000002,26.288 5.521,44.498 C69.46649475097657,150.6640376110077 72.78549475097657,153.2340376110077 76.47849475097657,153.2340376110077 z" id="svg_3" fill="#ffffff" fill-opacity="1" class=""/></g></g></svg>