<svg xmlns="http://www.w3.org/2000/svg" xmlns:xlink="http://www.w3.org/1999/xlink" enable-background="new 0 0 512 512" height="512" version="1.1" width="512" xml:space="preserve"><rect id="backgroundrect" width="100%" height="100%" x="0" y="0" fill="none" stroke="none"/><g class="currentLayer"><title>Layer 1</title><g id="_x3C_BusinessPresentation_x3E_" class="selected" fill="#ffffff" fill-opacity="1"><path d="M153.321,38h93.344h18.669h84.01c5.154,0,9.334-4.341,9.334-9.5s-4.18-9.5-9.334-9.5H265V9.76   c0-5.159-3.846-9.334-9-9.334c-5.155,0-9,4.175-9,9.334V19h-93.679c-5.155,0-9.334,4.341-9.334,9.5S148.166,38,153.321,38z" fill="#ffffff" id="svg_1" fill-opacity="1"/><path d="M480.025,364H31.975c-5.155,0-9.335,4.34-9.335,9.5s4.18,9.5,9.335,9.5h110.649L93.013,493.293   c-2.908,6.463-0.027,14.101,6.436,17.008l2.128,0.975c6.463,2.908,14.062-0.032,16.974-6.495L173.344,383H347.99l54.794,121.789   c2.912,6.463,10.51,9.377,16.973,6.469l2.129-0.939c6.463-2.907,9.344-10.57,6.436-17.033L378.705,383h101.32   c5.154,0,9.334-4.34,9.334-9.5S485.18,364,480.025,364z" fill="#ffffff" id="svg_2" fill-opacity="1"/><path d="M59.978,346h392.044C467.486,346,480,333.255,480,317.795V84.436C480,68.975,467.486,56,452.021,56H59.978   C44.513,56,32,68.975,32,84.436v233.359C32,333.255,44.513,346,59.978,346z M405,122h38v158h-38V122z M349,196h38v84h-38V196z    M293,159h38v121h-38V159z M153,134.434c38,0,66.527,29.873,66.527,66.718c0,36.854-30.142,66.727-66.997,66.727   c-19.115,0-36.214-8.04-48.378-20.921L153,201.151V134.434z M142.383,124.27l-0.611,58.979l-43.782-44.922   C111.176,128.756,126.804,124.07,142.383,124.27z M91.69,146.102l49.138,50.173l-53.395,51.312   c-11.28-12.98-18.122-29.926-18.122-48.477C69.312,178.326,77.895,159.548,91.69,146.102z" fill="#ffffff" id="svg_3" fill-opacity="1"/></g></g></svg>